<mxfile host="app.diagrams.net" modified="2024-06-11T04:31:31.782Z" agent="Mozilla/5.0 (Windows NT 10.0; Win64; x64) AppleWebKit/537.36 (KHTML, like Gecko) Chrome/125.0.0.0 Safari/537.36" etag="pfE5wlKI0DoxuS0JqiFA" version="24.5.2" type="device">
  <diagram id="P63H_FWvfV5n599-EYZh" name="Página-1">
    <mxGraphModel dx="2345" dy="964" grid="1" gridSize="10" guides="1" tooltips="1" connect="1" arrows="1" fold="1" page="1" pageScale="1" pageWidth="827" pageHeight="1169" math="0" shadow="0">
      <root>
        <mxCell id="0" />
        <mxCell id="1" parent="0" />
        <mxCell id="Phevo1-cin9VTM2DQLk_-3" value="Encargado de área" style="whiteSpace=wrap;strokeWidth=2;verticalAlign=top;" parent="1" vertex="1">
          <mxGeometry x="24" y="20" width="540" height="740" as="geometry" />
        </mxCell>
        <mxCell id="Phevo1-cin9VTM2DQLk_-1" value="Módulo de Recomendaciones" style="whiteSpace=wrap;strokeWidth=2;verticalAlign=top;" parent="1" vertex="1">
          <mxGeometry x="600" y="20" width="390" height="740" as="geometry" />
        </mxCell>
        <mxCell id="e_uQ2zTacwqlDQoLdPsX-74" style="edgeStyle=orthogonalEdgeStyle;rounded=0;orthogonalLoop=1;jettySize=auto;html=1;entryX=0.5;entryY=0;entryDx=0;entryDy=0;" edge="1" parent="1" source="Phevo1-cin9VTM2DQLk_-2" target="Phevo1-cin9VTM2DQLk_-9">
          <mxGeometry relative="1" as="geometry">
            <Array as="points">
              <mxPoint x="795" y="660" />
              <mxPoint x="317" y="660" />
            </Array>
          </mxGeometry>
        </mxCell>
        <mxCell id="Phevo1-cin9VTM2DQLk_-2" value="Emitir mensaje de confirmación de ingreso" style="whiteSpace=wrap;strokeWidth=2;" parent="1" vertex="1">
          <mxGeometry x="664.5" y="590" width="261" height="33" as="geometry" />
        </mxCell>
        <mxCell id="Phevo1-cin9VTM2DQLk_-4" value="Inicio" style="whiteSpace=wrap;strokeWidth=2;" parent="1" vertex="1">
          <mxGeometry x="267" y="50" width="54" height="33" as="geometry" />
        </mxCell>
        <mxCell id="Phevo1-cin9VTM2DQLk_-5" value="Ingreso a sección de selección de empleados" style="whiteSpace=wrap;strokeWidth=2;" parent="1" vertex="1">
          <mxGeometry x="178" y="128" width="232" height="33" as="geometry" />
        </mxCell>
        <mxCell id="e_uQ2zTacwqlDQoLdPsX-81" style="edgeStyle=orthogonalEdgeStyle;rounded=0;orthogonalLoop=1;jettySize=auto;html=1;exitX=0.5;exitY=1;exitDx=0;exitDy=0;" edge="1" parent="1" source="Phevo1-cin9VTM2DQLk_-6" target="e_uQ2zTacwqlDQoLdPsX-45">
          <mxGeometry relative="1" as="geometry" />
        </mxCell>
        <mxCell id="Phevo1-cin9VTM2DQLk_-6" value="Selección de empleados" style="whiteSpace=wrap;strokeWidth=2;" parent="1" vertex="1">
          <mxGeometry x="178" y="260" width="249" height="33" as="geometry" />
        </mxCell>
        <mxCell id="Phevo1-cin9VTM2DQLk_-9" value="Fin" style="whiteSpace=wrap;strokeWidth=2;" parent="1" vertex="1">
          <mxGeometry x="298.5" y="700" width="37" height="33" as="geometry" />
        </mxCell>
        <mxCell id="Phevo1-cin9VTM2DQLk_-10" value="" style="curved=1;startArrow=none;endArrow=block;exitX=0.5009982674210159;exitY=1.0121212583599668;entryX=0.5002323553479952;entryY=0.012121258359966856;rounded=0;" parent="1" source="Phevo1-cin9VTM2DQLk_-4" target="Phevo1-cin9VTM2DQLk_-5" edge="1">
          <mxGeometry relative="1" as="geometry">
            <Array as="points" />
          </mxGeometry>
        </mxCell>
        <mxCell id="Phevo1-cin9VTM2DQLk_-11" value="" style="curved=1;startArrow=none;endArrow=block;exitX=1;exitY=0.5;rounded=0;entryX=0;entryY=0.5;entryDx=0;entryDy=0;exitDx=0;exitDy=0;" parent="1" source="Phevo1-cin9VTM2DQLk_-5" target="Phevo1-cin9VTM2DQLk_-20" edge="1">
          <mxGeometry relative="1" as="geometry">
            <Array as="points" />
            <mxPoint x="230" y="220" as="targetPoint" />
          </mxGeometry>
        </mxCell>
        <mxCell id="Phevo1-cin9VTM2DQLk_-13" value="No" style="curved=1;startArrow=none;endArrow=block;entryX=0;entryY=0.5;rounded=0;entryDx=0;entryDy=0;exitX=1;exitY=0.5;exitDx=0;exitDy=0;" parent="1" source="e_uQ2zTacwqlDQoLdPsX-45" target="e_uQ2zTacwqlDQoLdPsX-77" edge="1">
          <mxGeometry relative="1" as="geometry">
            <Array as="points" />
            <mxPoint x="522.75" y="206" as="sourcePoint" />
          </mxGeometry>
        </mxCell>
        <mxCell id="Phevo1-cin9VTM2DQLk_-14" value="" style="curved=1;startArrow=none;endArrow=block;exitX=0.5;exitY=1;entryX=0.5;entryY=0;rounded=0;entryDx=0;entryDy=0;exitDx=0;exitDy=0;" parent="1" source="Phevo1-cin9VTM2DQLk_-20" target="e_uQ2zTacwqlDQoLdPsX-75" edge="1">
          <mxGeometry relative="1" as="geometry">
            <Array as="points" />
          </mxGeometry>
        </mxCell>
        <mxCell id="Phevo1-cin9VTM2DQLk_-17" value="" style="curved=1;startArrow=none;endArrow=block;exitX=0.5;exitY=1;rounded=0;entryX=0.5;entryY=0;entryDx=0;entryDy=0;exitDx=0;exitDy=0;" parent="1" source="e_uQ2zTacwqlDQoLdPsX-45" target="e_uQ2zTacwqlDQoLdPsX-83" edge="1">
          <mxGeometry relative="1" as="geometry">
            <Array as="points" />
            <mxPoint x="317" y="700" as="targetPoint" />
            <mxPoint x="231.70861418264826" y="590.0000000000002" as="sourcePoint" />
          </mxGeometry>
        </mxCell>
        <mxCell id="e_uQ2zTacwqlDQoLdPsX-82" value="&lt;font style=&quot;vertical-align: inherit;&quot;&gt;&lt;font style=&quot;vertical-align: inherit;&quot;&gt;si&lt;/font&gt;&lt;/font&gt;" style="edgeLabel;html=1;align=center;verticalAlign=middle;resizable=0;points=[];" vertex="1" connectable="0" parent="Phevo1-cin9VTM2DQLk_-17">
          <mxGeometry x="-0.3376" y="2" relative="1" as="geometry">
            <mxPoint as="offset" />
          </mxGeometry>
        </mxCell>
        <mxCell id="Phevo1-cin9VTM2DQLk_-20" value="Redirección a área " style="whiteSpace=wrap;strokeWidth=2;" parent="1" vertex="1">
          <mxGeometry x="664.5" y="128" width="261" height="33" as="geometry" />
        </mxCell>
        <mxCell id="e_uQ2zTacwqlDQoLdPsX-45" value="&lt;font style=&quot;vertical-align: inherit;&quot;&gt;&lt;font style=&quot;vertical-align: inherit;&quot;&gt;&lt;font style=&quot;vertical-align: inherit;&quot;&gt;&lt;font style=&quot;vertical-align: inherit;&quot;&gt;&lt;font style=&quot;vertical-align: inherit;&quot;&gt;&lt;font style=&quot;vertical-align: inherit;&quot;&gt;Son suficientes&lt;/font&gt;&lt;/font&gt;&lt;/font&gt;&lt;/font&gt;&lt;/font&gt;&lt;/font&gt;&lt;div&gt;&lt;font style=&quot;vertical-align: inherit;&quot;&gt;&lt;font style=&quot;vertical-align: inherit;&quot;&gt;&lt;font style=&quot;vertical-align: inherit;&quot;&gt;&lt;font style=&quot;vertical-align: inherit;&quot;&gt;&lt;font style=&quot;vertical-align: inherit;&quot;&gt;&lt;font style=&quot;vertical-align: inherit;&quot;&gt;&lt;font style=&quot;vertical-align: inherit;&quot;&gt;&lt;font style=&quot;vertical-align: inherit;&quot;&gt;para el proceso&lt;/font&gt;&lt;/font&gt;&lt;/font&gt;&lt;/font&gt;&lt;/font&gt;&lt;/font&gt;&lt;/font&gt;&lt;/font&gt;&lt;/div&gt;" style="rhombus;whiteSpace=wrap;html=1;" vertex="1" parent="1">
          <mxGeometry x="245.25" y="320" width="114.5" height="110" as="geometry" />
        </mxCell>
        <mxCell id="e_uQ2zTacwqlDQoLdPsX-73" style="edgeStyle=orthogonalEdgeStyle;rounded=0;orthogonalLoop=1;jettySize=auto;html=1;exitX=1;exitY=0.5;exitDx=0;exitDy=0;entryX=0;entryY=0.5;entryDx=0;entryDy=0;" edge="1" parent="1" source="e_uQ2zTacwqlDQoLdPsX-72" target="Phevo1-cin9VTM2DQLk_-2">
          <mxGeometry relative="1" as="geometry" />
        </mxCell>
        <mxCell id="e_uQ2zTacwqlDQoLdPsX-72" value="Guardar datos" style="whiteSpace=wrap;strokeWidth=2;" vertex="1" parent="1">
          <mxGeometry x="148.5" y="610" width="308" height="33" as="geometry" />
        </mxCell>
        <mxCell id="e_uQ2zTacwqlDQoLdPsX-80" style="edgeStyle=orthogonalEdgeStyle;rounded=0;orthogonalLoop=1;jettySize=auto;html=1;exitX=0;exitY=0.5;exitDx=0;exitDy=0;entryX=1;entryY=0.5;entryDx=0;entryDy=0;" edge="1" parent="1" source="e_uQ2zTacwqlDQoLdPsX-75" target="Phevo1-cin9VTM2DQLk_-6">
          <mxGeometry relative="1" as="geometry" />
        </mxCell>
        <mxCell id="e_uQ2zTacwqlDQoLdPsX-75" value="Ordenamiento de empleados disponibles según sus atributos de mayor a menos" style="whiteSpace=wrap;strokeWidth=2;" vertex="1" parent="1">
          <mxGeometry x="670.5" y="200" width="249" height="60" as="geometry" />
        </mxCell>
        <mxCell id="e_uQ2zTacwqlDQoLdPsX-79" style="edgeStyle=orthogonalEdgeStyle;rounded=0;orthogonalLoop=1;jettySize=auto;html=1;exitX=1;exitY=0.5;exitDx=0;exitDy=0;entryX=1;entryY=0.5;entryDx=0;entryDy=0;" edge="1" parent="1" source="e_uQ2zTacwqlDQoLdPsX-77" target="e_uQ2zTacwqlDQoLdPsX-75">
          <mxGeometry relative="1" as="geometry" />
        </mxCell>
        <mxCell id="e_uQ2zTacwqlDQoLdPsX-77" value="Notificación de empleados insuficientes" style="whiteSpace=wrap;strokeWidth=2;" vertex="1" parent="1">
          <mxGeometry x="664.5" y="358.5" width="249" height="33" as="geometry" />
        </mxCell>
        <mxCell id="e_uQ2zTacwqlDQoLdPsX-83" value="&lt;font style=&quot;vertical-align: inherit;&quot;&gt;&lt;font style=&quot;vertical-align: inherit;&quot;&gt;Son demasiados&lt;/font&gt;&lt;/font&gt;" style="rhombus;whiteSpace=wrap;html=1;" vertex="1" parent="1">
          <mxGeometry x="252.5" y="470" width="100" height="100" as="geometry" />
        </mxCell>
        <mxCell id="e_uQ2zTacwqlDQoLdPsX-89" style="edgeStyle=orthogonalEdgeStyle;rounded=0;orthogonalLoop=1;jettySize=auto;html=1;exitX=1;exitY=0.5;exitDx=0;exitDy=0;entryX=1;entryY=0.5;entryDx=0;entryDy=0;" edge="1" parent="1" source="e_uQ2zTacwqlDQoLdPsX-84" target="e_uQ2zTacwqlDQoLdPsX-75">
          <mxGeometry relative="1" as="geometry" />
        </mxCell>
        <mxCell id="e_uQ2zTacwqlDQoLdPsX-84" value="Notificación de exceso de empleados" style="whiteSpace=wrap;strokeWidth=2;" vertex="1" parent="1">
          <mxGeometry x="664.5" y="503.5" width="249" height="33" as="geometry" />
        </mxCell>
        <mxCell id="e_uQ2zTacwqlDQoLdPsX-85" value="No" style="curved=1;startArrow=none;endArrow=block;entryX=0.5;entryY=0;rounded=0;entryDx=0;entryDy=0;exitX=0.5;exitY=1;exitDx=0;exitDy=0;" edge="1" parent="1" source="e_uQ2zTacwqlDQoLdPsX-83" target="e_uQ2zTacwqlDQoLdPsX-72">
          <mxGeometry relative="1" as="geometry">
            <Array as="points" />
            <mxPoint x="370" y="385" as="sourcePoint" />
            <mxPoint x="675" y="377" as="targetPoint" />
          </mxGeometry>
        </mxCell>
        <mxCell id="e_uQ2zTacwqlDQoLdPsX-87" value="" style="curved=1;startArrow=none;endArrow=block;exitX=1;exitY=0.5;rounded=0;entryX=0;entryY=0.5;entryDx=0;entryDy=0;exitDx=0;exitDy=0;" edge="1" parent="1" source="e_uQ2zTacwqlDQoLdPsX-83" target="e_uQ2zTacwqlDQoLdPsX-84">
          <mxGeometry relative="1" as="geometry">
            <Array as="points" />
            <mxPoint x="313" y="480" as="targetPoint" />
            <mxPoint x="313" y="440" as="sourcePoint" />
          </mxGeometry>
        </mxCell>
        <mxCell id="e_uQ2zTacwqlDQoLdPsX-88" value="&lt;font style=&quot;vertical-align: inherit;&quot;&gt;&lt;font style=&quot;vertical-align: inherit;&quot;&gt;si&lt;/font&gt;&lt;/font&gt;" style="edgeLabel;html=1;align=center;verticalAlign=middle;resizable=0;points=[];" vertex="1" connectable="0" parent="e_uQ2zTacwqlDQoLdPsX-87">
          <mxGeometry x="-0.3376" y="2" relative="1" as="geometry">
            <mxPoint as="offset" />
          </mxGeometry>
        </mxCell>
      </root>
    </mxGraphModel>
  </diagram>
</mxfile>
